<?xml version="1.0" standalone="no"?>
<!DOCTYPE svg PUBLIC "-//W3C//DTD SVG 20010904//EN"
 "http://www.w3.org/TR/2001/REC-SVG-20010904/DTD/svg10.dtd">
<svg version="1.0" xmlns="http://www.w3.org/2000/svg"
 width="16.000000pt" height="16.000000pt" viewBox="0 0 16.000000 16.000000"
 preserveAspectRatio="xMidYMid meet">
<metadata>
Created by potrace 1.11, written by Peter Selinger 2001-2013
</metadata>
<g transform="translate(0.000000,16.000000) scale(0.010000,-0.010000)"
fill="#000000" stroke="none">
<path d="M530 1296 l0 -94 -37 -7 c-151 -27 -299 -175 -334 -331 -9 -39 -19
-55 -40 -68 -40 -24 -61 -71 -66 -152 -7 -94 17 -172 67 -226 29 -30 44 -38
71 -38 19 0 40 5 47 12 9 9 23 1 59 -34 95 -88 197 -129 323 -129 41 0 96 7
123 15 26 8 49 11 51 8 2 -4 3 -22 1 -39 l-3 -33 369 0 369 0 -1 475 0 475
-64 0 c-71 0 -72 1 -70 78 l2 52 -67 0 -66 0 1 65 2 65 -369 0 -368 0 0 -94z
m0 -168 c0 -7 -28 -22 -61 -32 -64 -20 -160 -84 -197 -131 -31 -39 -27 -21 4
23 37 51 103 103 166 129 60 25 88 29 88 11z"/>
</g>
</svg>
